<svg xmlns="http://www.w3.org/2000/svg" viewBox="0 0 116.27 216.49"><defs><style>.cls-1{fill:#606060;}</style></defs><g id="Layer_2" data-name="Layer 2"><g id="Layer_9" data-name="Layer 9"><path class="cls-1" d="M1.24,105.18a4.47,4.47,0,0,0,.12,6.3L108.74,215.26a4.46,4.46,0,0,0,6.17-6.43L7.54,105.05a4.39,4.39,0,0,0-3.09-1.27A4.22,4.22,0,0,0,1.24,105.18Z"/><path class="cls-1" d="M108.74,1.23,1.36,105a4.46,4.46,0,1,0,6.18,6.42L114.91,7.65a4.46,4.46,0,0,0,.13-6.3A4.55,4.55,0,0,0,111.82,0,4.5,4.5,0,0,0,108.74,1.23Z"/></g></g></svg>