<svg xmlns="http://www.w3.org/2000/svg" viewBox="0 0 101.04 129.6"><defs><style>.cls-1{fill:#F79142;}</style></defs><g id="Layer_2" data-name="Layer 2"><g id="Layer_7" data-name="Layer 7"><path class="cls-1" d="M48.71,87.24v3.2a2.11,2.11,0,0,0,1.81,2.32,2.11,2.11,0,0,0,1.8-2.32v-3.2a2.11,2.11,0,0,0-1.8-2.32A2.11,2.11,0,0,0,48.71,87.24Z"/><path class="cls-1" d="M101,62.74a3.43,3.43,0,0,0,0-.47V50.61a3.43,3.43,0,0,0,0-.47c-.29-5.25-5.77-9.51-16.31-12.61.29-3.08.72-6.13,1.24-9.17L90.39,2.81A2.35,2.35,0,0,0,89,.06c-1-.28-2,.5-2.17,1.75L82.42,27.37c-.67,3.79-1.16,7.64-1.48,11.5a4.09,4.09,0,0,0,0,.46c-.32,3.85-.49,7.71-.45,11.58,0,3,.11,6,.34,9.05a126.17,126.17,0,0,1-30.27,3.31A129.49,129.49,0,0,1,20.24,60a129.71,129.71,0,0,0,.18-16.38A122.34,122.34,0,0,0,19.23,31.4a.13.13,0,0,0,0-.12.25.25,0,0,0,0-.12.21.21,0,0,0,0-.13c-.15-1.23-.34-2.46-.56-3.66L18,23.5a104.67,104.67,0,0,1,19-3.31H37a.71.71,0,0,0,.2,0c.07,0,.13-.07.2-.09a2.06,2.06,0,0,0,.26-.12,2.11,2.11,0,0,0,.36-.31c.05-.05.1-.09.15-.15s0,0,0,0a1.13,1.13,0,0,0,.2-.34,1.27,1.27,0,0,0,.06-.18,1.25,1.25,0,0,0,.1-.27,2.55,2.55,0,0,0,.13-.78V6.05a.93.93,0,0,0,0-.23,1.87,1.87,0,0,0-.08-.34c0-.08,0-.15,0-.22a2.39,2.39,0,0,0-.28-.58l-.07-.08,0,0,0,0a1.6,1.6,0,0,0-.27-.25,1.05,1.05,0,0,0-.11-.07,1.28,1.28,0,0,0-.25-.15A1.49,1.49,0,0,0,37,3.91l-.06,0h-.12a104.86,104.86,0,0,0-21.54,4L14.16,1.81C14,.56,13-.22,12,.06a2.36,2.36,0,0,0-1.36,2.75l1.11,6.32C5,11.79.31,15.42,0,20.15a3.28,3.28,0,0,0,0,.46V32.28a3.28,3.28,0,0,0,0,.46c.28,5.34,6,9.65,16.85,12.75A124.74,124.74,0,0,1,16.69,59a41.23,41.23,0,0,1-8.28-3.4l0,0-.12,0a.88.88,0,0,0-.2-.09,1.09,1.09,0,0,0-.18,0,2.1,2.1,0,0,0-.24-.06c-.07,0-.12,0-.19.05h0a2.14,2.14,0,0,0-1.61,2.26V69.38a2.69,2.69,0,0,0,.31,1.22h0a2,2,0,0,0,.33.51l0,0a2.52,2.52,0,0,0,.25.21c.07,0,.12.11.19.15H7a43.23,43.23,0,0,0,7.68,3.26c-.47,2.44-1,4.87-1.64,7.25a181.72,181.72,0,0,1-8.24,24.81A56.57,56.57,0,0,0,2.11,115a1.45,1.45,0,0,0-.11.37s0,.07,0,.1A84.41,84.41,0,0,0,0,127a2.26,2.26,0,0,0,1.55,2.59.9.9,0,0,0,.23,0,2,2,0,0,0,1.79-2A83.32,83.32,0,0,1,5,118.72a95.08,95.08,0,0,0,15,2.85h.18a2.05,2.05,0,0,0,1.79-2.1A2.23,2.23,0,0,0,20.3,117,93.16,93.16,0,0,1,6.1,114.3a46.26,46.26,0,0,1,1.84-5.25c.54-1.29,1.06-2.61,1.59-4,7.47,3.18,23.08,5.2,40.83,5.2s33.76-2.11,41.09-5.32h0c.54,1.39,1.08,2.76,1.64,4.1a49.61,49.61,0,0,1,1.82,5.14h0c-8.92,2.69-26,4.4-44.59,4.4-6.89,0-13.58-.23-19.88-.67-1-.08-1.85.9-1.9,2.18a2.18,2.18,0,0,0,1.7,2.44c6.37.45,13.12.68,20.08.68,19,0,36.54-1.79,45.71-4.61a90.21,90.21,0,0,1,1.41,9,2,2,0,0,0,1.78,2,1,1,0,0,0,.24,0A2.27,2.27,0,0,0,101,127a82.88,82.88,0,0,0-2-11.71s0-.07,0-.1h0c0-.12-.07-.25-.1-.36a56.72,56.72,0,0,0-2.6-8c-.76-1.8-1.5-3.65-2.2-5.55,0,0,0,0,0-.06s0-.12,0-.18a1.19,1.19,0,0,0-.09-.15,1.31,1.31,0,0,0,0-.15v0A186.41,186.41,0,0,1,88.05,82c-.62-2.38-1.18-4.81-1.65-7.25C95,72,100.71,67.94,101,62.74ZM15.1,28.36c0,.05,0,.12,0,.17A46.88,46.88,0,0,1,10,26.47a36.75,36.75,0,0,1,4.49-1.86ZM12.54,13.64c1.06-.41,2.22-.83,3.46-1.22A96,96,0,0,1,35.09,8.71v7A106.39,106.39,0,0,0,17.16,19c-1.21.35-2.38.72-3.5,1.11a37.21,37.21,0,0,0-7.92,3.7,19.39,19.39,0,0,0-2.13,1.6V20.61C3.61,18.69,6.51,16,12.54,13.64ZM3.61,32.28c0-.93.67-2,2.06-3.2A39.28,39.28,0,0,0,15.9,33.53c.3,2.36.55,4.74.72,7.15C6.4,37.55,3.61,33.87,3.61,32.28ZM97.43,50.61c0,1-.69,2.1-2,3.19A40.78,40.78,0,0,0,84.06,49c0-2.29.09-4.58.25-6.85C94.63,45.31,97.43,49,97.43,50.61ZM84.09,53.78a44.42,44.42,0,0,1,7,2.66A46.69,46.69,0,0,1,84.35,59C84.22,57.25,84.13,55.51,84.09,53.78Zm.53,29.72c1.55,6,3.31,11.76,5.28,17.24-7,2.92-22.62,4.9-39.54,4.9s-32.11-1.89-39.26-4.78c2-5.51,3.77-11.32,5.32-17.36.65-2.55,1.24-5.12,1.73-7.69,8.88,2.41,20.32,3.78,32.37,3.78,11.56,0,23.18-1.25,32.37-3.75C83.39,78.41,84,81,84.62,83.5Zm1-13.24c-1.1.37-2.29.72-3.54,1A123.51,123.51,0,0,1,50.52,75c-11.84,0-23-1.32-31.58-3.64-1.22-.32-2.41-.67-3.51-1a42.29,42.29,0,0,1-6-2.43h0V61.11h0a49.93,49.93,0,0,0,6.85,2.52c1.14.35,2.31.65,3.54,1,2.4.58,5,1.11,7.68,1.55v2.22a2.12,2.12,0,0,0,1.81,2.31,2.1,2.1,0,0,0,1.8-2.31V66.67a143.56,143.56,0,0,0,17.59,1.2v1.51a2.12,2.12,0,0,0,1.81,2.31,2.11,2.11,0,0,0,1.8-2.31V67.87a143.18,143.18,0,0,0,17.59-1.2v1.69a1.86,1.86,0,1,0,3.61,0v-2.2c2.69-.44,5.27-1,7.69-1.55,1.22-.3,2.4-.62,3.53-1A41.21,41.21,0,0,0,95.3,59.08a19.08,19.08,0,0,0,2.13-1.6v4.79C97.43,64.77,93.21,67.78,85.61,70.26Z"/></g></g></svg>