<svg  xmlns="http://www.w3.org/2000/svg" fill="#F79142" viewBox="0 0 189.99 149.14"><g id="Layer_2" data-name="Layer 2"><g id="Layer_7" data-name="Layer 7"><path d="M189.9,59.14c-.5-1.7-12-41.3-63.4-57.4A39.75,39.75,0,0,0,108.3.54C90.9,3.44,46.3,12.14,7,29.64a11.65,11.65,0,0,0-6.7,8.1,11.42,11.42,0,0,0,2.2,9.8c3.5,4.4,7.7,6.6,12.4,6.6a8.6,8.6,0,0,0,1.6-.1c5.3-.6,21.7-6.4,40.8-13.1,25.8-9.1,58-20.4,67.5-20.4a2.79,2.79,0,0,1,1,.1l2,.3c13.5,2.1,36.2,5.5,58.3,39.8a2.23,2.23,0,0,0,1.8,1,2.92,2.92,0,0,0,.9-.2A2,2,0,0,0,189.9,59.14Zm-61.4-42.2-1.9-.3a9.15,9.15,0,0,0-1.7-.1c-10.2,0-41.4,10.9-68.8,20.6C38,43.54,21,49.44,16.2,50c-.4,0-.8.1-1.2.1-3.4,0-6.4-1.7-9.1-5.1a7.23,7.23,0,0,1-1.4-6.2,7.84,7.84,0,0,1,4.4-5.3c38.8-17.4,83-26,100.2-28.8a41.82,41.82,0,0,1,6.1-.5,35,35,0,0,1,10.2,1.5c25.2,7.9,40.5,22,49.4,33.9C156.7,21.14,139.6,18.64,128.5,16.94Z"/><path d="M163.1,94.34c-.4.2-38.9,15.2-68.1,15.2-24.3,0-42-5.1-53.8-8.5-2.6-.8-4.9-1.4-6.9-1.9-11.6-2.9-17.1-.1-17.7.2a2,2,0,0,0-1,2.2,1.92,1.92,0,0,0,1.7,1.7,67,67,0,0,1,12.9,4.2c-1.2,4.1-3.8,10.3-9.5,14.8a2.06,2.06,0,0,0-.3,2.9,2,2,0,0,0,2.9.3c6.2-5,9.2-11.7,10.7-16.4,2.5,1.1,6,2.7,8.3,3.8-.8,4.1-3.3,11.9-11.5,19.2a2.06,2.06,0,0,0-.2,2.9,2,2,0,0,0,1.6.7,2.39,2.39,0,0,0,1.4-.5c8.5-7.6,11.5-15.7,12.6-20.6,2.4,1,5.6,2.3,7.6,3.2-.8,5.7-3.1,16.4-9.2,22.8a2.1,2.1,0,0,0,1.5,3.5,2,2,0,0,0,1.5-.6c6.6-6.9,9.2-17.9,10.2-24.2,3,1,6.2,2.1,8.5,2.7-.3,11.4-2.6,20.1-6.3,23.6a2.05,2.05,0,0,0-.1,2.9,2.33,2.33,0,0,0,1.5.7,2,2,0,0,0,1.4-.6c5.8-5.5,7.3-17.6,7.6-25.7,4.1.7,11.3,1.9,15.3,2.5-1.5,7.7-2.7,20.8-2.8,21.5a2.12,2.12,0,0,0,1.9,2.3H85a2.08,2.08,0,0,0,2.1-1.9c0-.2,1.3-13.9,2.8-21.4,1.7.1,3.4.1,5.1.1.2,0,.9,0,4-.2h.6c-.9,9.3,1.4,21.2,1.5,21.7a2.12,2.12,0,0,0,2,1.7h.4a2.12,2.12,0,0,0,1.7-2.4c0-.1-2.4-12.5-1.4-21.2,1.8-.3,4.6-.7,7.4-1.2h.2c2.5,13.9,11,19.3,11.4,19.6a2,2,0,0,0,1.1.3,2.23,2.23,0,0,0,1.8-1,2.11,2.11,0,0,0-.7-2.9c-.3-.2-7.4-4.8-9.5-16.9,2.8-.8,7.1-2.1,9.9-3,9.6,18.5,14.9,20.7,16.3,20.9h.3a2.06,2.06,0,0,0,.4-4.1s-4.5-2-13-18.3c2.5-1,6.1-2.7,11-5a40.36,40.36,0,0,0,11.9,18,1.87,1.87,0,0,0,1.4.5,2.13,2.13,0,0,0,1.6-.7,2,2,0,0,0-.2-2.9A34.49,34.49,0,0,1,144.2,112c1.8-1,4.5-2.6,6.6-3.9a33.59,33.59,0,0,0,10.4,15.5,2.06,2.06,0,1,0,2.6-3.2,30.05,30.05,0,0,1-9.4-14.5A131.78,131.78,0,0,0,165.2,98a2.13,2.13,0,0,0,.4-2.7A1.94,1.94,0,0,0,163.1,94.34ZM140.8,109c-7.6,3.6-12.7,5.9-15,6.8l-1.2.4c-3.1,1-9.5,3-11.8,3.5-.5.1-1.3.2-2.3.4-2.8.5-7.3,1.3-8.7,1.4-.4,0-1.7.1-3,.1-1.7.1-3.5.2-3.8.2-2.2,0-4.4-.1-6.6-.2-3.2-.4-16.6-2.6-19.6-3.2-2.6-.7-9.7-3.1-12.1-3.9-1.4-.5-6.3-2.6-9.3-3.8l-2.1-.9c-2.4-1.1-9.8-4.4-11.9-5.4h0c-1.5-.7-3.2-1.4-4.8-2,1.4.2,3,.5,4.7.9,2,.5,4.2,1.1,6.8,1.9,12,3.4,30.1,8.6,55,8.6,19.3,0,42-6.2,56.1-10.7-.1,0-.1.1-.2.1l-1.7,1C146.6,105.64,142.2,108.24,140.8,109Z"/><path d="M22,91.34a2,2,0,0,0,.7-.1s1.7-.6,4.6-1.4a2.09,2.09,0,1,0-1.2-4l-4.7,1.4a2,2,0,0,0-1.3,2.6A1.83,1.83,0,0,0,22,91.34Z"/><path d="M56.1,83.14h.4c3.3-.6,6.7-1.1,9.9-1.5a2.11,2.11,0,0,0,1.8-2.3,2,2,0,0,0-2.3-1.8c-3.3.4-6.7.9-10.1,1.5a2.12,2.12,0,0,0-1.7,2.4A2,2,0,0,0,56.1,83.14Z"/><path d="M36.4,87.34a.9.9,0,0,0,.5-.1c3.2-.8,6.5-1.6,9.8-2.2a2.1,2.1,0,0,0-.9-4.1c-3.3.7-6.6,1.5-9.9,2.3a2.06,2.06,0,0,0-1.5,2.5A2,2,0,0,0,36.4,87.34Z"/><path d="M106.3,80.64h.2a2.08,2.08,0,0,0,2.1-1.9,2.12,2.12,0,0,0-1.9-2.3q-5.25-.45-10.2-.6a2.26,2.26,0,0,0-2.2,2,2.19,2.19,0,0,0,2,2.2C99.5,80.14,102.9,80.34,106.3,80.64Z"/><path d="M76.3,80.54c3.4-.3,6.8-.5,10-.6a2.05,2.05,0,0,0-.1-4.1q-5,.15-10.2.6a2.13,2.13,0,0,0-1.9,2.3,2.08,2.08,0,0,0,2.1,1.9A.1.1,0,0,1,76.3,80.54Z"/><path d="M145.8,87.34c.2,0,.3.1.5.1a2,2,0,0,0,2-1.6,2.06,2.06,0,0,0-1.5-2.5c-3.3-.8-6.6-1.6-9.9-2.2a2.1,2.1,0,0,0-.9,4.1C139.2,85.84,142.5,86.64,145.8,87.34Z"/><path d="M126.1,83.34h.4a2.06,2.06,0,0,0,.4-4.1c-3.4-.6-6.8-1.1-10.1-1.5a2.11,2.11,0,0,0-2.3,1.8,2,2,0,0,0,1.8,2.3C119.5,82.24,122.8,82.74,126.1,83.34Z"/><path d="M160.1,91.24a1.27,1.27,0,0,0,.6.1,2.13,2.13,0,0,0,2-1.5,2,2,0,0,0-1.4-2.6l-4.7-1.4a2.09,2.09,0,1,0-1.2,4Z"/></g></g></svg>