<svg xmlns="http://www.w3.org/2000/svg"  viewBox="0 0 276.79 251.08"><defs><style>.cls-1,.cls-2{fill:none;stroke:#F79142;stroke-linecap:round;stroke-linejoin:round;}.cls-1{stroke-width:8.44px;}.cls-2{stroke-width:5.63px;}</style></defs><g id="Layer_2" data-name="Layer 2"><g id="Layer_7" data-name="Layer 7"><path class="cls-1" d="M204.68,246.85l-7.29-52.21A15.42,15.42,0,0,1,200,183.4l39.71-51.17,6.6-32.08-7.07-27.57L218,48.87a6.39,6.39,0,0,0-8.67-.28h0a6.22,6.22,0,0,0-.92,8.46l14.27,19"/><path class="cls-1" d="M160.68,246.85v-76a31,31,0,0,1,10.48-23.19L210,113.34l11.27-33.18A5.34,5.34,0,0,1,227,76.6h0A5.28,5.28,0,0,1,231.5,83l-7.82,36.52-9.81,19.14"/><line class="cls-1" x1="219.57" y1="32.88" x2="224.54" y2="13.47"/><path class="cls-1" d="M210.35,63.69,206.83,75a41.06,41.06,0,0,1-9.9,17.14l-24.76,25.73a34.34,34.34,0,0,1-24.74,10.49h0a34.41,34.41,0,0,1-22.58-8.43l-15-13.09s.57,32.41-15.17,41.63"/><path class="cls-1" d="M76.11,43.25l8.42,32"/><path class="cls-2" d="M131.45,88.83s4.25,5.06,17.4,5.06,17.41-5.06,17.41-5.06"/><path class="cls-1" d="M146.52,52.29l8.92-2.94A6.55,6.55,0,0,0,159.65,41c-1.74-5.19-4.45-11.95-6.13-16A19.69,19.69,0,0,1,152,17.3l.09-9.72"/><path class="cls-1" d="M84.78,176.49,73.13,155.42,68,129.53a5.58,5.58,0,0,1,6.17-6.76h0a5.6,5.6,0,0,1,4.61,3.72l6.67,18.73L104.75,163c15.26,8.44,24.68,24.83,28.13,31.72a16.89,16.89,0,0,1,1.72,6.21l3.62,45.93"/><path class="cls-1" d="M96.25,246.85l3.11-38.11-33.07-30a16.58,16.58,0,0,1-4.63-7.19L50.9,137.77a12.26,12.26,0,0,1,.44-8.64l10.24-23.44a8.74,8.74,0,0,1,4.75-4.6L92.58,85.22a6.16,6.16,0,0,1,8.38,2h0a6,6,0,0,1-1.44,8L79.73,110.35l-5.56,11.21"/><path class="cls-1" d="M42.54,167.93,4.22,178.46"/><path class="cls-1" d="M233.63,164.38l38.94,15.24"/><path class="cls-2" d="M161.68,80.71l14.17-2.1A121.19,121.19,0,0,1,155.37,70l-7.26,4.14-5.86-3.4c-5.77,3.59-18.43,8.74-18.43,8.74l16.23,1.27"/><path class="cls-1" d="M179.41,110.35s-3.57,14.65,2.52,27.81"/><path class="cls-1" d="M98.64,4.22S89.86,23.14,70.12,52.29s-9.65,49.1-9.65,49.1"/><path class="cls-1" d="M203.34,4.22s2.3,21.88,21.2,34.25"/></g></g></svg>