<?xml version="1.0" encoding="utf-8"?>
<svg version="1.1" xmlns="http://www.w3.org/2000/svg" xmlns:xlink="http://www.w3.org/1999/xlink" x="0px" y="0px" viewBox="0 0 1000 1000" enable-background="new 0 0 1000 1000" xml:space="preserve">
<metadata> Svg Vector Icons : http://www.onlinewebfonts.com/icon </metadata>
<g><path fill="#333" d="M949,801.8c-18.3-50.4-44.9-97.1-79-138.9c-55.9-68.4-130-120-212.5-148.9c13.6-9.4,26.4-20.1,38.3-32c52.2-52.2,81-121.7,81-195.5c0-73.9-28.8-143.3-81-195.5c-52.2-52.2-121.7-81-195.5-81C426.4,10,357,38.8,304.8,91c-52.2,52.2-81,121.7-81,195.5c0,73.9,28.8,143.3,81,195.5c11.9,11.9,24.7,22.5,38.2,31.9c-82.6,28.8-156.6,80.3-212.6,148.6c-34.2,41.7-60.9,88.5-79.3,139c-19,52.3-28.7,107.2-28.7,163.3c0,13.9,11.3,25.1,25.1,25.1c13.9,0,25.1-11.3,25.1-25.1c0-199.7,141.2-374.9,335.9-417.4c29.1,10.2,59.9,15.5,91.6,15.5c31.6,0,62.5-5.3,91.5-15.4c194.5,42.6,335.5,217.8,335.5,417.3c0,13.9,11.3,25.1,25.1,25.1s25.1-11.3,25.1-25.1C977.6,908.8,967.9,854,949,801.8z M274.1,286.5c0-124.7,101.5-226.2,226.2-226.2c124.7,0,226.2,101.5,226.2,226.2S625,512.7,500.3,512.7C375.5,512.7,274.1,411.2,274.1,286.5z"/></g>
</svg>