<svg xmlns="http://www.w3.org/2000/svg" viewBox="0 0 168.61 139.62"><defs><style>.cls-1{fill:none;stroke:#F79142;stroke-linecap:round;stroke-linejoin:round;stroke-width:6.52px;}</style></defs><g id="Layer_2" data-name="Layer 2"><g id="Layer_7" data-name="Layer 7"><path class="cls-1" d="M63.58,22.57c-3.16,0-6.41,1.53-9.19,6-1.68,3.28-3.43,6.64-5.23,10"/><path class="cls-1" d="M46.84,69.4s4.63,8.87,16.63,13.29"/><path class="cls-1" d="M164.52,73.87l-14.33-.8c-20.89-1-36.4-5.73-39.44-8.6-4-3.78-9.5-8-13.9-6-7.38,3.33-12.55,2.65-12.55,2.65s-5.16.68-12.55-2.65c-4.4-2-9.9,2.25-13.9,6-2.7,2.55-15.61,6.37-33.25,7.9"/><path class="cls-1" d="M123.61,15.92c-16.33-27.51-39.3-1.62-39.3-1.62S61.33-11.59,45,15.92c0,0-31.66,53.05-41.74,57.36,0,0,28,63.08,56,63.08h50c28,0,56-63.08,56-63.08C155.27,69,123.61,15.92,123.61,15.92Z"/><path class="cls-1" d="M121.64,69.74s-9.76,16.4-37.46,16.4h-6.6"/></g></g></svg>