<svg xmlns="http://www.w3.org/2000/svg" width="556" height="626.214" viewBox="0 0 556 626.214">
  <path id="패스_1030" data-name="패스 1030" d="M561.919,516.006a313.466,313.466,0,0,0-46-88.765c-32.548-43.712-75.693-76.687-123.729-95.156a165.6,165.6,0,0,0,22.3-20.45c30.394-33.359,47.163-77.773,47.163-124.936,0-47.226-16.769-91.577-47.163-124.936S343.631,10,300.66,10c-43.029,0-83.437,18.4-113.831,51.764S139.666,139.537,139.666,186.7c0,47.226,16.769,91.577,47.163,124.936a168.219,168.219,0,0,0,22.242,20.386c-48.094,18.4-91.181,51.316-123.788,94.964a312.6,312.6,0,0,0-46.173,88.829A331.385,331.385,0,0,0,22.4,620.173c0,8.883,6.579,16.04,14.615,16.04,8.093,0,14.615-7.221,14.615-16.04,0-127.62,82.215-239.583,195.58-266.743a148.831,148.831,0,0,0,106.611.064c113.249,27.224,195.347,139.187,195.347,266.679,0,8.883,6.58,16.04,14.615,16.04s14.615-7.221,14.615-16.04A326.733,326.733,0,0,0,561.919,516.006ZM168.954,186.7c0-79.691,59.1-144.555,131.706-144.555S432.367,107.009,432.367,186.7s-59.1,144.555-131.706,144.555C227.995,331.255,168.954,266.39,168.954,186.7Z" transform="translate(-22.4 -10)" fill="#606060"/>
</svg>
