<svg xmlns="http://www.w3.org/2000/svg" fill="#F79142" viewBox="0 0 50.18 125.9"><g id="Layer_2" data-name="Layer 2"><g id="Layer_7" data-name="Layer 7"><path d="M30.21,125.9a1.5,1.5,0,0,1-1.49-1.33c-.33-2.94.58-6.09,3.05-10.55a10.51,10.51,0,0,0-3.15-13.81c-1.25-.85-2.59-1.66-3.88-2.45-4.85-3-9.86-6-11.62-11.43C10.8,79.23,16,72.08,21,65.17c1.46-2,2.84-3.91,4-5.8,4.6-7.24,16.81-26.46,16.64-39.12a25.57,25.57,0,0,0-7-17.71A1.5,1.5,0,1,1,36.88.46a28.3,28.3,0,0,1,7.84,19.75c.16,12-9.06,28.09-17.1,40.77-1.26,2-2.73,4-4.16,6C18.87,73.23,14.13,79.75,16,85.4c1.42,4.38,5.75,7,10.33,9.8,1.32.8,2.7,1.64,4,2.52a13.53,13.53,0,0,1,4.09,17.77c-2.11,3.8-2.94,6.5-2.68,8.74a1.5,1.5,0,0,1-1.32,1.66Z"/><path d="M48.68,103.58a1.53,1.53,0,0,1-1.17-.56,10.69,10.69,0,0,0-9.32-3.78,1.5,1.5,0,0,1-.34-3,13.77,13.77,0,0,1,12,4.87,1.5,1.5,0,0,1-.22,2.11A1.47,1.47,0,0,1,48.68,103.58Z"/><path d="M23,109.91a1,1,0,0,1-1-.91,4.6,4.6,0,0,0-.44-1.58,1,1,0,0,1,1.8-.88v0a6.56,6.56,0,0,1,.62,2.25,1,1,0,0,1-.91,1.08H23Zm-3.74-5.69a1,1,0,0,1-.64-.23c-.48-.4-1-.79-1.53-1.18a1,1,0,1,1,1.18-1.62h0c.57.41,1.12.83,1.63,1.26a1,1,0,0,1-.64,1.77Zm-5.73-4A1,1,0,0,1,13,100c-.55-.37-1.12-.74-1.67-1.12A1,1,0,0,1,11,97.51a1,1,0,0,1,1.39-.26h0l1.65,1.11a1,1,0,0,1,.28,1.38A1,1,0,0,1,13.52,100.19ZM7.87,96.06a1,1,0,0,1-.66-.24c-.55-.48-1.06-1-1.51-1.44A1,1,0,1,1,7.11,93l0,0c.41.43.88.87,1.39,1.31a1,1,0,0,1,.09,1.41A1,1,0,0,1,7.87,96.06Zm-4.3-5.45a1,1,0,0,1-.88-.53c-.34-.63-.64-1.25-.91-1.86a1,1,0,0,1,1.83-.81c.25.56.53,1.15.84,1.73a1,1,0,0,1-.88,1.47ZM1.22,84.05a1,1,0,0,1-1-.84A18.23,18.23,0,0,1,0,81.11,1,1,0,1,1,2,81c0,.62.11,1.25.21,1.87A1,1,0,0,1,1.39,84h0Zm.2-7a.75.75,0,0,1-.21,0,1,1,0,0,1-.77-1.19h0c.15-.66.32-1.34.53-2a1,1,0,1,1,1.92.55v0c-.19.63-.35,1.25-.48,1.85A1,1,0,0,1,1.42,77.09Zm2.39-6.56a1,1,0,0,1-1-1,1,1,0,0,1,.1-.44c.3-.59.62-1.2,1-1.81a1,1,0,0,1,1.75,1C5.29,68.84,5,69.42,4.7,70A1,1,0,0,1,3.81,70.53Zm3.57-6a1,1,0,0,1-1-1A1,1,0,0,1,6.55,63c.37-.54.75-1.1,1.15-1.66a1,1,0,0,1,1.39-.23,1,1,0,0,1,.25,1.37c-.39.56-.76,1.1-1.12,1.64A1,1,0,0,1,7.38,64.52Zm4-5.74a1,1,0,0,1-1-1,1,1,0,0,1,.19-.58l1.16-1.63a1,1,0,0,1,1.63,1.15l-1.16,1.64A1,1,0,0,1,11.4,58.78Zm4-5.74a1,1,0,0,1-1-1,.94.94,0,0,1,.18-.56l1.12-1.65a1,1,0,0,1,1.68,1.09l0,0-1.13,1.66a1,1,0,0,1-.83.44Zm3.85-5.85a1,1,0,0,1-1-1,1,1,0,0,1,.15-.53c.35-.56.69-1.12,1-1.69a1,1,0,0,1,1.72,1l-1.05,1.72a1,1,0,0,1-.85.48Zm3.5-6.06a1,1,0,0,1-1-1,1,1,0,0,1,.11-.46c.31-.58.61-1.17.9-1.76a1,1,0,0,1,1.8.89q-.45.9-.93,1.8a1,1,0,0,1-.88.54Zm3-6.34a1,1,0,0,1-1-1,1,1,0,0,1,.07-.38c.24-.61.48-1.22.7-1.83a1,1,0,0,1,1.88.67c-.22.64-.47,1.28-.72,1.91a1,1,0,0,1-.93.63Zm2.14-6.66a1,1,0,0,1-1-1,.86.86,0,0,1,0-.23c.15-.64.28-1.27.4-1.91a1,1,0,0,1,1.16-.81,1,1,0,0,1,.81,1.17q-.18,1-.42,2a1,1,0,0,1-1,.77Zm.92-6.93h0a1,1,0,0,1-1-1v-.65c0-.42,0-.85,0-1.28a1,1,0,0,1,.95-1h0a1,1,0,0,1,1,.95c0,.46,0,.92,0,1.37v.7a1,1,0,0,1-1,1Z"/></g></g></svg>