<svg xmlns="http://www.w3.org/2000/svg" fill="#F79142" viewBox="0 0 93.96 120.01"><g id="Layer_2" data-name="Layer 2"><g id="Layer_7" data-name="Layer 7"><circle cx="69.96" cy="8.01" r="6"/><path d="M24,109.07c3.68-.4,7.64-1.76,11.83-3.19,8.25-2.83,16.79-5.76,22.86-1,3.75,2.94,4.4,7.49,5.09,12.3l.16,1.13a2,2,0,0,0,2,1.7h.29A2,2,0,0,0,68,117.76v0l-.16-1.12c-.77-5.38-1.57-10.95-6.58-14.88-7.78-6.11-17.79-2.67-26.63.36-4,1.37-7.73,2.65-11,3-3,.33-5.28-.23-6.67-1.64-2.34-2.38-1.85-6.6-1.85-6.6a13.22,13.22,0,0,0-4.45-12.06l-.11-.08A4.55,4.55,0,0,1,9.67,84a2.27,2.27,0,0,1,.83-.74c2.06-1.15,2-3.68,1.06-5.53a2,2,0,0,0-1.32-1c-1.22-.29-2-.75-2.19-1.23-.24-.76.59-2.25,1.31-3.09,2.45-2.18,4-5.88,2-8.58-1.2-1.65-3.19-2.26-4.79-2.75l-.88-.28A2.31,2.31,0,0,1,4,58.51c-.08-.93.32-1.46,1.48-2.72l.45-.5q3-3.33,6-6.62L15.23,45A14.39,14.39,0,0,0,19,36.74c.4-3.7-.34-7.4-1-10.67-.69-3.46-1.23-6.59-.83-9.73A56.76,56.76,0,0,1,20.55,4.27l.58-1.58a2,2,0,1,0-3.76-1.37L16.8,2.88a59.87,59.87,0,0,0-3.67,13,34.24,34.24,0,0,0,.88,11c.62,3.13,1.27,6.37.93,9.46a9.51,9.51,0,0,1-.27,1.49,2.26,2.26,0,0,1-1-.86,2,2,0,0,0-3.39,2.13A6.19,6.19,0,0,0,13,41.46a10.64,10.64,0,0,1-.74.92L9,46q-3,3.26-6,6.61l-.42.46c-1.22,1.34-2.75,3-2.52,5.75a6.28,6.28,0,0,0,4.42,5.65l1,.33a6.09,6.09,0,0,1,2.73,1.28c.47.65-.45,2.38-1.5,3.29l-.18.17c-.34.37-3.26,3.72-2.24,7A5.64,5.64,0,0,0,8,80.11a5,5,0,0,0-2.27,3.58c-.07,1.09.31,2.7,2.46,4.23a9.21,9.21,0,0,1,3,8.31c0,.25-.77,6.19,2.93,10C16.35,108.58,19.7,109.53,24,109.07Z"/><path d="M74.55,106a2,2,0,0,0,1.48-.66c4.59-5.06,15.49-18.42,17.55-33.11C96.43,52,82.68,41,69.39,30.44,59.27,22.37,48.8,14,45.91,1.56a2,2,0,0,0-3.9.9c3.21,13.82,14.23,22.61,24.89,31.1,13,10.35,25.25,20.12,22.72,38.13-1.32,9.42-7.51,21-16.56,31A2,2,0,0,0,74.55,106Z"/><path d="M68.4,90.63a2,2,0,0,0,2.79-.45c3.67-5.07,5.87-11.53,5.77-16.87-.28-13.83-9.19-22.08-17.8-30a89.35,89.35,0,0,1-11-11.43,34.45,34.45,0,0,1-5.33-9.45A2,2,0,1,0,39,23.55a.88.88,0,0,1,0,.15A38,38,0,0,0,45,34.22a92.22,92.22,0,0,0,11.46,12c8.39,7.72,16.29,15,16.54,27.17.09,4.44-1.88,10.12-5,14.45A2,2,0,0,0,68.4,90.63Z"/><circle cx="37.96" cy="42.01" r="2"/><circle cx="47.96" cy="59.01" r="2"/><circle cx="32.96" cy="52.01" r="2"/><circle cx="38.96" cy="83" r="2"/><circle cx="50.96" cy="73" r="2"/><path d="M41.61,62.29a2,2,0,0,0-1.94-.85l-3.33.49L34,59.6a2,2,0,0,0-3.4,1.07l-.52,3.09-3,1.35a2,2,0,0,0-.06,3.62L30,70.18l.42,3.1a2,2,0,0,0,3.36,1.18l2.38-2.26,3.31.6a2,2,0,0,0,2.32-1.62,2,2,0,0,0-.2-1.28l-1.46-2.77,1.56-2.72A2,2,0,0,0,41.61,62.29Z"/></g></g></svg>