<svg xmlns="http://www.w3.org/2000/svg" viewBox="0 0 116.27 216.49"><defs><style>.cls-1{fill:#606060;}</style></defs><g id="Layer_2" data-name="Layer 2"><g id="Layer_9" data-name="Layer 9"><path class="cls-1" d="M115,111.32a4.46,4.46,0,0,0-.13-6.3L7.54,1.24A4.46,4.46,0,0,0,1.36,7.66L108.74,111.44a4.36,4.36,0,0,0,3.08,1.27A4.25,4.25,0,0,0,115,111.32Z"/><path class="cls-1" d="M7.54,215.27,114.91,111.49a4.46,4.46,0,1,0-6.17-6.43L1.36,208.84a4.44,4.44,0,0,0,3.09,7.65A4.56,4.56,0,0,0,7.54,215.27Z"/></g></g></svg>